<svg width="104" height="54" viewBox="0 0 104 54" fill="none" xmlns="http://www.w3.org/2000/svg">
<g filter="url(#filter0_d)">
<path d="M76.6428 3H27.3571C15.5619 3 6 12.402 6 24C6 35.598 15.5619 45 27.3571 45H76.6428C88.438 45 97.9999 35.598 97.9999 24C97.9999 12.402 88.438 3 76.6428 3Z" fill="white"/>
</g>
<path d="M54.6241 26.8555V29.6751H57.2663L54.7245 34.0644H62.7595V31.2313H59.8165L62.3756 26.8555H54.6241ZM60.6398 25.2262C61.3659 25.1429 62.0977 25.0898 62.8177 24.9688C64.3466 24.67 65.8576 24.2871 67.3436 23.8218C69.0174 23.3526 70.6916 22.8853 72.366 22.4201C73.1346 22.2058 73.9482 22.2084 74.7153 22.4276C76.2859 22.8621 77.8563 23.3009 79.4265 23.744C81.1878 24.2969 82.9836 24.7353 84.8024 25.0563C85.6862 25.1984 86.5854 25.2202 87.4751 25.121C87.7973 25.1034 88.1068 24.9909 88.3642 24.798C88.6215 24.605 88.815 24.3404 88.9199 24.0378C89.0577 23.6562 89.1521 23.2605 89.2016 22.8582C89.2809 22.1906 89.2889 21.5147 89.3593 20.8453C89.447 20.0041 89.594 19.1695 89.6686 18.3265C89.7645 17.6224 89.6844 16.9057 89.4354 16.2396C89.1863 15.5735 88.7759 14.9783 88.2402 14.5065C87.4197 13.815 86.4065 13.3872 85.3352 13.2799C84.2509 13.1485 83.1517 13.2095 82.0889 13.46C80.0861 13.9264 78.1315 14.5772 76.2507 15.404C75.5532 15.6968 74.8425 15.9552 74.1295 16.2163C73.7399 16.3593 73.3109 16.3553 72.9241 16.2051C72.3393 15.9891 71.753 15.7741 71.1785 15.5329C69.004 14.5559 66.7226 13.8326 64.3799 13.3776C63.0387 13.0913 61.6438 13.1794 60.3502 13.6323C59.7621 13.8376 59.2245 14.1641 58.7729 14.5903C58.3212 15.0165 57.9656 15.5328 57.7296 16.1051C57.4245 16.9078 57.3379 17.776 57.4784 18.6225C57.6005 19.6342 57.7203 20.6464 57.838 21.659C57.9145 22.3205 57.9628 22.9862 58.0727 23.6426C58.1184 23.9306 58.2362 24.2027 58.4153 24.4339C58.5969 24.6635 58.8292 24.8486 59.0942 24.9753C59.3592 25.1019 59.65 25.1665 59.9441 25.1643H60.6294L60.6398 25.2262ZM70.2955 20.3821C70.1905 20.4675 70.0808 20.547 69.967 20.6205C68.4067 21.5257 66.6687 22.0879 64.8704 22.2693C63.7724 22.3535 62.6807 22.041 61.7968 21.3895C61.6675 21.294 61.5498 21.1839 61.4462 21.0613L61.4344 21.0497C61.3729 20.9887 61.3241 20.9163 61.2908 20.8367C61.2575 20.757 61.2404 20.6716 61.2404 20.5853C61.2404 20.4991 61.2575 20.4137 61.2908 20.334C61.3241 20.2543 61.3729 20.182 61.4344 20.121C61.6965 19.8064 62.0222 19.55 62.3906 19.3683C63.124 19.0009 63.9198 18.7715 64.7375 18.6919C65.1065 18.6923 65.4731 18.7514 65.8232 18.8669C66.9376 19.1442 68.0295 19.5034 69.0902 19.9413C69.4093 20.0623 69.7356 20.1666 70.0576 20.2811C70.1191 20.303 70.1782 20.3319 70.297 20.3817L70.2955 20.3821ZM77.027 20.3128C78.1695 19.9055 79.3073 19.4809 80.4592 19.0987C81.0114 18.9322 81.5726 18.7965 82.1401 18.6923C82.2994 18.673 82.461 18.6823 82.617 18.7198C83.4256 18.8206 84.2078 19.0712 84.9231 19.4586C85.215 19.6336 85.4809 19.8481 85.7131 20.0959C85.7317 20.1119 85.7494 20.129 85.7661 20.1471C85.8231 20.2087 85.8672 20.2809 85.896 20.3595C85.9249 20.4381 85.9378 20.5216 85.9341 20.6052C85.9304 20.6887 85.9101 20.7707 85.8745 20.8465C85.8388 20.9223 85.7884 20.9904 85.7262 21.0469C85.371 21.4498 84.9122 21.7497 84.3988 21.9146C83.2656 22.3418 82.022 22.3866 80.8605 22.0421C79.5794 21.7366 78.3482 21.2529 77.2035 20.6056C77.1031 20.5474 77.0125 20.4752 76.8956 20.3952C76.9377 20.3642 76.9823 20.3366 77.0289 20.3128H77.027ZM41.9483 30.8333C41.8958 31.7041 42.1568 32.565 42.6847 33.2628C42.9871 33.6272 43.3699 33.9178 43.8035 34.1121C44.2372 34.3064 44.7101 34.3991 45.1856 34.3832C45.6165 34.3912 46.0442 34.3094 46.4411 34.1431C46.838 33.9768 47.1953 33.7297 47.4899 33.4178C47.7983 33.1054 48.0405 32.7349 48.2023 32.3282C48.3641 31.9215 48.4422 31.4868 48.4319 31.0497V27.0319H45.7053V31.1028C45.7053 31.5128 45.535 31.7176 45.1946 31.7173C44.8541 31.717 44.682 31.5121 44.6782 31.1028V27.0319H41.9516L41.9483 30.8333ZM50.0218 26.9286V34.1398H52.7484V26.9309L50.0218 26.9286ZM51.3928 23.711C51.2151 23.7091 51.0388 23.7423 50.8741 23.8087C50.7095 23.8751 50.5598 23.9734 50.4339 24.0978C50.3056 24.2137 50.2034 24.355 50.1337 24.5126C50.064 24.6702 50.0284 24.8405 50.0293 25.0126C50.0236 25.1849 50.0548 25.3564 50.1208 25.516C50.1868 25.6755 50.2862 25.8193 50.4123 25.938C50.5436 26.0593 50.6979 26.1537 50.8662 26.2157C51.0345 26.2777 51.2134 26.3061 51.3928 26.2992C51.5722 26.306 51.7511 26.2775 51.9194 26.2156C52.0877 26.1536 52.242 26.0592 52.3734 25.938C52.4995 25.8193 52.5988 25.6754 52.6648 25.5159C52.7308 25.3564 52.762 25.1849 52.7564 25.0126C52.7573 24.8405 52.7217 24.6702 52.652 24.5126C52.5823 24.355 52.48 24.2137 52.3518 24.0978C52.2259 23.9734 52.0763 23.875 51.9116 23.8086C51.747 23.7422 51.5706 23.709 51.3928 23.711V23.711ZM65.2398 27.8587C64.8757 28.2007 64.5877 28.6144 64.3944 29.0733C64.201 29.5321 64.1065 30.026 64.117 30.5232C64.1098 31.0189 64.2057 31.5107 64.3989 31.9679C64.5921 32.4251 64.8784 32.8379 65.2398 33.1804C65.5916 33.5367 66.0129 33.8184 66.4779 34.0082C66.9429 34.198 67.442 34.292 67.9449 34.2846C68.4468 34.2927 68.9451 34.1994 69.4095 34.0105C69.8739 33.8215 70.2946 33.5408 70.6462 33.1855C71.0072 32.8421 71.2929 32.4286 71.4855 31.9708C71.678 31.5129 71.7732 31.0206 71.7652 30.5246C71.7719 30.0327 71.6775 29.5447 71.4876 29.0902C71.2977 28.6357 71.0163 28.2245 70.6607 27.8815C70.3189 27.5269 69.9072 27.246 69.4512 27.056C68.9952 26.866 68.5047 26.7712 68.0101 26.7773C67.499 26.7651 66.9906 26.8546 66.515 27.0407C66.0394 27.2268 65.6062 27.5055 65.2412 27.8605L65.2398 27.8587ZM68.6879 29.7589C68.7888 29.8609 68.868 29.982 68.9208 30.115C68.9736 30.248 68.999 30.3901 68.9953 30.533C68.9977 30.6745 68.9715 30.815 68.9183 30.9462C68.8651 31.0775 68.786 31.1969 68.6855 31.2974C68.5904 31.3994 68.4747 31.4804 68.346 31.5353C68.2173 31.5901 68.0784 31.6176 67.9383 31.6158C67.7993 31.617 67.6616 31.5893 67.5341 31.5345C67.4066 31.4796 67.2921 31.3989 67.1981 31.2974C67.0977 31.1969 67.0186 31.0775 66.9654 30.9462C66.9122 30.8149 66.886 30.6745 66.8883 30.533C66.8852 30.391 66.9107 30.2497 66.9632 30.1175C67.0158 29.9853 67.0943 29.8648 67.1943 29.7631C67.2892 29.6621 67.4044 29.5819 67.5325 29.5278C67.6605 29.4736 67.7986 29.4468 67.9378 29.4489C68.0781 29.4459 68.2174 29.4721 68.3469 29.5259C68.4763 29.5796 68.593 29.6596 68.6893 29.7607L68.6879 29.7589ZM76.0573 26.7768C75.6295 26.7585 75.2027 26.8322 74.8063 26.9929C74.41 27.1536 74.0534 27.3975 73.761 27.7078C73.1621 28.3976 72.854 29.2897 72.9007 30.1988V34.1393H75.6273V30.7192C75.6273 29.9676 75.8752 29.5916 76.3708 29.5913C76.5538 29.5999 76.7315 29.6547 76.8872 29.7505V26.8583C76.614 26.8116 76.3377 26.785 76.0606 26.7787L76.0573 26.7768ZM80.8474 26.7768C80.4196 26.7585 79.9928 26.8322 79.5964 26.9929C79.2001 27.1536 78.8435 27.3975 78.5511 27.7078C77.9522 28.3976 77.6441 29.2897 77.6908 30.1988V34.1393H80.4174V30.7192C80.4174 29.9676 80.6653 29.5916 81.1609 29.5913C81.3439 29.5999 81.5216 29.6547 81.6773 29.7505V26.8583C81.4042 26.8116 81.1281 26.785 80.8511 26.7787L80.8474 26.7768ZM83.1577 27.8587C82.7937 28.2007 82.5057 28.6144 82.3124 29.0733C82.119 29.5321 82.0245 30.026 82.0349 30.5232C82.0277 31.0189 82.1237 31.5107 82.3169 31.9679C82.5101 32.4251 82.7963 32.8379 83.1577 33.1804C83.5095 33.5367 83.9308 33.8184 84.3958 34.0082C84.8609 34.198 85.36 34.292 85.8628 34.2846C86.3647 34.2927 86.863 34.1995 87.3274 34.0105C87.7918 33.8216 88.2126 33.5409 88.5641 33.1855C88.9253 32.8422 89.2111 32.4287 89.4037 31.9709C89.5964 31.513 89.6916 31.0207 89.6836 30.5246C89.6906 30.0333 89.5966 29.5456 89.4074 29.0914C89.2182 28.6372 88.9376 28.226 88.5829 27.8829C88.2411 27.5283 87.8294 27.2474 87.3734 27.0574C86.9174 26.8674 86.4268 26.7726 85.9323 26.7787C85.4209 26.766 84.9122 26.8553 84.4363 27.0411C83.9604 27.2269 83.5269 27.5056 83.1615 27.8605L83.1577 27.8587ZM86.6072 29.7589C86.7074 29.8605 86.786 29.981 86.8386 30.1132C86.8911 30.2455 86.9165 30.3867 86.9133 30.5288C86.9156 30.6703 86.8893 30.8108 86.836 30.9421C86.7828 31.0734 86.7035 31.1927 86.603 31.2932C86.5079 31.3952 86.3922 31.4762 86.2635 31.5311C86.1347 31.5859 85.9958 31.6134 85.8557 31.6116C85.7168 31.6128 85.5791 31.5851 85.4516 31.5303C85.3241 31.4755 85.2096 31.3947 85.1155 31.2932C85.015 31.1927 84.9358 31.0734 84.8825 30.9421C84.8293 30.8108 84.803 30.6703 84.8053 30.5288C84.8022 30.3868 84.8277 30.2455 84.8802 30.1133C84.9328 29.9812 85.0113 29.8607 85.1113 29.7589C85.2062 29.6579 85.3214 29.5777 85.4495 29.5236C85.5775 29.4695 85.7156 29.4426 85.8548 29.4447C85.9963 29.4414 86.1368 29.4679 86.2672 29.5224C86.3977 29.5769 86.515 29.6581 86.6115 29.7607L86.6072 29.7589ZM30.046 15.4724C30.9047 15.4339 31.7614 15.5852 32.5539 15.9153C33.3464 16.2454 34.0551 16.746 34.6286 17.381C35.7602 18.6534 36.3258 20.5413 36.3255 23.0449C36.3238 24.7387 36.021 26.419 35.4308 28.0086C34.5083 27.3305 33.5149 26.7531 32.4676 26.2862C31.485 25.8767 30.4307 25.6633 29.3649 25.6582C28.6548 26.1508 27.9719 26.681 27.3193 27.2465C26.5057 27.937 25.651 28.7129 24.7551 29.5741C26.8385 29.9045 28.8693 30.5042 30.7956 31.3579C29.5585 31.7545 28.2707 31.974 26.971 32.0096C23.0535 32.0096 18.7164 28.739 18.2963 25.7178C17.8762 22.6967 18.8032 19.2077 20.8779 18.4461L18.6873 17.7301C16.622 19.797 15.5532 20.0474 14.6111 26.14C14.2952 28.1789 14.9965 30.9175 15.901 32.511C16.5562 33.5748 17.5496 34.3921 18.7248 34.8343C19.7863 35.3421 20.9415 35.6286 22.119 35.676C23.7783 35.5863 25.4222 35.3123 27.0199 34.859C29.1329 34.3387 31.162 33.527 33.0478 32.4477C34.6027 33.3121 36.1118 34.2553 37.5689 35.2738L39.4812 32.1083C38.6795 31.0447 37.7854 30.053 36.8089 29.1444C38.3233 27.7446 39.5644 26.0799 40.4702 24.2338C41.3839 22.5624 41.8915 20.7025 41.9525 18.8022C41.942 17.1937 41.2912 15.6543 40.1416 14.5195C38.9425 13.2552 36.9416 12.623 34.1391 12.623C29.8586 12.623 24.7086 14.3268 18.6892 17.7343L20.8798 18.4503C24.2735 16.4672 27.3305 15.4752 30.0507 15.4743L30.046 15.4724ZM60.3595 34.0634V32.0692H57.5282L59.7592 27.6934H54.112V29.6751H56.6777L54.4612 34.0639L60.3595 34.0634Z" fill="url(#paint0_linear)"/>
<defs>
<filter id="filter0_d" x="0" y="0" width="104" height="54" filterUnits="userSpaceOnUse" color-interpolation-filters="sRGB">
<feFlood flood-opacity="0" result="BackgroundImageFix"/>
<feColorMatrix in="SourceAlpha" type="matrix" values="0 0 0 0 0 0 0 0 0 0 0 0 0 0 0 0 0 0 127 0" result="hardAlpha"/>
<feOffset dy="3"/>
<feGaussianBlur stdDeviation="3"/>
<feColorMatrix type="matrix" values="0 0 0 0 0 0 0 0 0 0 0 0 0 0 0 0 0 0 0.161 0"/>
<feBlend mode="normal" in2="BackgroundImageFix" result="effect1_dropShadow"/>
<feBlend mode="normal" in="SourceGraphic" in2="effect1_dropShadow" result="shape"/>
</filter>
<linearGradient id="paint0_linear" x1="14.5342" y1="24.1495" x2="89.708" y2="24.1495" gradientUnits="userSpaceOnUse">
<stop stop-color="#511B95"/>
<stop offset="1" stop-color="#FA009E"/>
</linearGradient>
</defs>
</svg>
