<svg width="30" height="21" viewBox="0 0 30 21" fill="none" xmlns="http://www.w3.org/2000/svg">
<path d="M29.9997 1.4925C29.9997 0.667501 29.3307 3.24964e-06 28.5072 3.24964e-06H16.4922C16.0964 3.24964e-06 15.7168 0.157249 15.4369 0.437145C15.157 0.717041 14.9998 1.09666 14.9998 1.4925C14.9998 1.88833 15.157 2.26795 15.4369 2.54785C15.7168 2.82774 16.0964 2.98499 16.4922 2.98499H28.5072C29.3322 2.98499 29.9997 2.31749 29.9997 1.4925V1.4925Z" fill="white"/>
<path d="M29.9961 10.4917C29.9961 9.66681 29.3272 8.9994 28.5038 8.9994H1.49231C1.09652 8.9994 0.716948 9.15662 0.437087 9.43648C0.157225 9.71634 0 10.0959 0 10.4917C0 10.8875 0.157225 11.2671 0.437087 11.5469C0.716948 11.8268 1.09652 11.984 1.49231 11.984H28.5038C29.3287 11.984 29.9961 11.3151 29.9961 10.4917V10.4917Z" fill="white"/>
<path d="M28.5079 18.015C28.9037 18.015 29.2833 18.1723 29.5632 18.4522C29.8431 18.7321 30.0004 19.1117 30.0004 19.5075C30.0004 19.9033 29.8431 20.283 29.5632 20.5629C29.2833 20.8428 28.9037 21 28.5079 21H10.493C10.297 21 10.1029 20.9614 9.92183 20.8864C9.74075 20.8114 9.57622 20.7015 9.43763 20.5629C9.29904 20.4243 9.1891 20.2597 9.1141 20.0787C9.03909 19.8976 9.00049 19.7035 9.00049 19.5075C9.00049 19.3115 9.03909 19.1174 9.1141 18.9364C9.1891 18.7553 9.29904 18.5907 9.43763 18.4522C9.57622 18.3136 9.74075 18.2036 9.92183 18.1286C10.1029 18.0536 10.297 18.015 10.493 18.015H28.5079Z" fill="white"/>
</svg>
